# xmcd
#
# Track frame offsets:
#	200
#	16017
#	30790
#	44595
#	60832
#	77777
#	96772
#	110385
#	126747
#	142742
#	155517
#
# Disc length: 2320 seconds
#
# Revision: 0
# Processed by: cddbd v1.5.2PL0 Copyright (c) Steve Scherf et al.
# Submitted via: audiograbber 1.83.01
#
DISCID=7e090e0b
DTITLE=Alabama - Greatest Hits Vol. III
DYEAR=1994
DGENRE=Country
TTITLE0=Give Me One More Shot
TTITLE1=We Can't Love Like This Anymore
TTITLE2=Tennessee River
TTITLE3=When We Make Love
TTITLE4=If You're Gonna Play In Texas
TTITLE5=There's No Way
TTITLE6=Face To Face
TTITLE7=Jukebox In My Mind
TTITLE8=Forever's As Far As I'll Go
TTITLE9=I'm In A Hurry (And Don't Know Why)
TTITLE10=Angels Among Us (Vocal Remix)
EXTD=
EXTT0=
EXTT1=
EXTT2=
EXTT3=
EXTT4=
EXTT5=
EXTT6=
EXTT7=
EXTT8=
EXTT9=
EXTT10=
PLAYORDER=
